# xmcd CD database file
#
# Track frame offsets:
#	150
#	15991
#	35011
#	49603
#	69922
#	84395
#	103525
#	119205
#	136678
#	149393
#	169527
#	189778
#
# Disc length: 2812 seconds
#
# Revision: 2
# Processed by: cddbd v1.5.1PL0 Copyright (c) Steve Scherf et al.
# Submitted via: CDex 1.51
#
DISCID=940afa0c
DTITLE=Dada [ante portas] - Seasons Change
DYEAR=2004
DGENRE=Alt Rock
TTITLE0=Too Good For Good
TTITLE1=Free From Dying
TTITLE2=Drive
TTITLE3=Nothin' But Real
TTITLE4=What You Get Is What You Give
TTITLE5=Color For Portray
TTITLE6=She Cries For Someone Else
TTITLE7=Wherever I Wanna Go
TTITLE8=Ode To My Baby
TTITLE9=Time For Love
TTITLE10=When Is's All Been Said
TTITLE11=Love
EXTD=YEAR: 2004
EXTT0=
EXTT1=
EXTT2=
EXTT3=
EXTT4=
EXTT5=
EXTT6=
EXTT7=
EXTT8=
EXTT9=
EXTT10=
EXTT11=
PLAYORDER=
